<mxfile host="app.diagrams.net" agent="Mozilla/5.0 (X11; Linux x86_64) AppleWebKit/537.36 (KHTML, like Gecko) Chrome/127.0.0.0 Safari/537.36" version="24.7.4">
  <diagram name="Page-1" id="MPjGWEGqGx8vjAxs02W3">
    <mxGraphModel grid="1" page="1" gridSize="10" guides="1" tooltips="1" connect="1" arrows="1" fold="1" pageScale="1" pageWidth="850" pageHeight="1100" math="0" shadow="0">
      <root>
        <mxCell id="0" />
        <mxCell id="1" parent="0" />
        <mxCell id="EaBmqPBPfIl5NzQHK9tH-1" value="&lt;font style=&quot;font-size: 14px;&quot;&gt;Bank1: bank&lt;/font&gt;" style="swimlane;whiteSpace=wrap;html=1;strokeWidth=3;" vertex="1" parent="1">
          <mxGeometry x="430" y="350" width="210" height="80" as="geometry" />
        </mxCell>
        <mxCell id="EaBmqPBPfIl5NzQHK9tH-2" value="&lt;b style=&quot;font-size: 14px;&quot;&gt;name = &quot;NIC Asia&quot;&lt;br&gt;address = &quot;Kathmandu&quot;&lt;/b&gt;" style="text;html=1;align=left;verticalAlign=middle;resizable=0;points=[];autosize=1;strokeColor=none;fillColor=none;" vertex="1" parent="EaBmqPBPfIl5NzQHK9tH-1">
          <mxGeometry x="10" y="28" width="180" height="50" as="geometry" />
        </mxCell>
        <mxCell id="EaBmqPBPfIl5NzQHK9tH-3" value="&lt;font style=&quot;font-size: 14px;&quot;&gt;C1: Customer1&lt;/font&gt;" style="swimlane;whiteSpace=wrap;html=1;strokeWidth=3;" vertex="1" parent="1">
          <mxGeometry x="260" y="500" width="210" height="120" as="geometry" />
        </mxCell>
        <mxCell id="EaBmqPBPfIl5NzQHK9tH-4" value="&lt;b style=&quot;font-size: 14px;&quot;&gt;&lt;font style=&quot;font-size: 14px;&quot;&gt;id = 101&lt;/font&gt;&lt;/b&gt;&lt;div style=&quot;font-size: 14px;&quot;&gt;&lt;b&gt;&lt;font style=&quot;font-size: 14px;&quot;&gt;name = &quot;Hari Shrestha&quot;&lt;/font&gt;&lt;/b&gt;&lt;/div&gt;&lt;div style=&quot;font-size: 14px;&quot;&gt;&lt;b&gt;&lt;font style=&quot;font-size: 14px;&quot;&gt;address = &quot;KTM&quot;&lt;/font&gt;&lt;/b&gt;&lt;/div&gt;&lt;div style=&quot;font-size: 14px;&quot;&gt;&lt;b&gt;&lt;font style=&quot;font-size: 14px;&quot;&gt;phone = &quot;123-456&quot;&lt;/font&gt;&lt;/b&gt;&lt;/div&gt;" style="text;html=1;align=left;verticalAlign=middle;resizable=0;points=[];autosize=1;strokeColor=none;fillColor=none;" vertex="1" parent="EaBmqPBPfIl5NzQHK9tH-3">
          <mxGeometry x="10" y="30" width="180" height="80" as="geometry" />
        </mxCell>
        <mxCell id="EaBmqPBPfIl5NzQHK9tH-7" value="&lt;font style=&quot;font-size: 14px;&quot;&gt;C2: Customer2&lt;/font&gt;" style="swimlane;whiteSpace=wrap;html=1;strokeWidth=3;" vertex="1" parent="1">
          <mxGeometry x="610" y="500" width="210" height="120" as="geometry" />
        </mxCell>
        <mxCell id="EaBmqPBPfIl5NzQHK9tH-8" value="&lt;b style=&quot;font-size: 14px;&quot;&gt;&lt;font style=&quot;font-size: 14px;&quot;&gt;id = 102&lt;/font&gt;&lt;/b&gt;&lt;div style=&quot;font-size: 14px;&quot;&gt;&lt;b&gt;&lt;font style=&quot;font-size: 14px;&quot;&gt;name = &quot;Ram Shrestha&quot;&lt;/font&gt;&lt;/b&gt;&lt;/div&gt;&lt;div style=&quot;font-size: 14px;&quot;&gt;&lt;b&gt;&lt;font style=&quot;font-size: 14px;&quot;&gt;address = &quot;KTM&quot;&lt;/font&gt;&lt;/b&gt;&lt;/div&gt;&lt;div style=&quot;font-size: 14px;&quot;&gt;&lt;b&gt;&lt;font style=&quot;font-size: 14px;&quot;&gt;phone = &quot;567-890&quot;&lt;/font&gt;&lt;/b&gt;&lt;/div&gt;" style="text;html=1;align=left;verticalAlign=middle;resizable=0;points=[];autosize=1;strokeColor=none;fillColor=none;" vertex="1" parent="EaBmqPBPfIl5NzQHK9tH-7">
          <mxGeometry x="10" y="30" width="180" height="80" as="geometry" />
        </mxCell>
        <mxCell id="EaBmqPBPfIl5NzQHK9tH-9" value="&lt;font style=&quot;font-size: 14px;&quot;&gt;CA: CheckingAccount1&lt;/font&gt;" style="swimlane;whiteSpace=wrap;html=1;strokeWidth=3;startSize=23;" vertex="1" parent="1">
          <mxGeometry x="120" y="680" width="210" height="80" as="geometry" />
        </mxCell>
        <mxCell id="EaBmqPBPfIl5NzQHK9tH-10" value="&lt;blockquote style=&quot;margin: 0 0 0 40px; border: none; padding: 0px;&quot;&gt;&lt;span style=&quot;font-size: 14px;&quot;&gt;&lt;b&gt;accountNo = 123456&lt;/b&gt;&lt;/span&gt;&lt;/blockquote&gt;&lt;blockquote style=&quot;margin: 0 0 0 40px; border: none; padding: 0px;&quot;&gt;&lt;span style=&quot;font-size: 14px;&quot;&gt;&lt;b&gt;balance = 500.00&lt;/b&gt;&lt;/span&gt;&lt;/blockquote&gt;" style="text;html=1;align=left;verticalAlign=middle;resizable=0;points=[];autosize=1;strokeColor=none;fillColor=none;" vertex="1" parent="EaBmqPBPfIl5NzQHK9tH-9">
          <mxGeometry x="-30" y="25" width="200" height="50" as="geometry" />
        </mxCell>
        <mxCell id="EaBmqPBPfIl5NzQHK9tH-11" value="&lt;font style=&quot;font-size: 14px;&quot;&gt;SA: SavingAccount1&lt;/font&gt;" style="swimlane;whiteSpace=wrap;html=1;strokeWidth=3;startSize=23;" vertex="1" parent="1">
          <mxGeometry x="410" y="680" width="210" height="100" as="geometry" />
        </mxCell>
        <mxCell id="EaBmqPBPfIl5NzQHK9tH-12" value="&lt;blockquote style=&quot;margin: 0 0 0 40px; border: none; padding: 0px;&quot;&gt;&lt;span style=&quot;font-size: 14px;&quot;&gt;&lt;b&gt;accountNo = 678901&lt;/b&gt;&lt;/span&gt;&lt;/blockquote&gt;&lt;blockquote style=&quot;margin: 0 0 0 40px; border: none; padding: 0px;&quot;&gt;&lt;span style=&quot;font-size: 14px;&quot;&gt;&lt;b&gt;interestRate = 2.5&lt;/b&gt;&lt;/span&gt;&lt;/blockquote&gt;&lt;blockquote style=&quot;margin: 0 0 0 40px; border: none; padding: 0px;&quot;&gt;&lt;span style=&quot;font-size: 14px;&quot;&gt;&lt;b&gt;balance = 5000.00&lt;/b&gt;&lt;/span&gt;&lt;/blockquote&gt;" style="text;html=1;align=left;verticalAlign=middle;resizable=0;points=[];autosize=1;strokeColor=none;fillColor=none;" vertex="1" parent="EaBmqPBPfIl5NzQHK9tH-11">
          <mxGeometry x="-30" y="28" width="200" height="60" as="geometry" />
        </mxCell>
        <mxCell id="EaBmqPBPfIl5NzQHK9tH-13" value="&lt;font style=&quot;font-size: 14px;&quot;&gt;T1: Transaction1&lt;/font&gt;" style="swimlane;whiteSpace=wrap;html=1;strokeWidth=3;" vertex="1" parent="1">
          <mxGeometry x="30" y="840" width="210" height="120" as="geometry" />
        </mxCell>
        <mxCell id="EaBmqPBPfIl5NzQHK9tH-14" value="&lt;b style=&quot;font-size: 14px;&quot;&gt;&lt;font style=&quot;font-size: 14px;&quot;&gt;id = 1&lt;/font&gt;&lt;/b&gt;&lt;div style=&quot;font-size: 14px;&quot;&gt;&lt;b&gt;date = &quot;2024-07-15&quot;&lt;/b&gt;&lt;/div&gt;&lt;div style=&quot;font-size: 14px;&quot;&gt;&lt;b&gt;amount = 500.00&lt;/b&gt;&lt;/div&gt;&lt;div style=&quot;font-size: 14px;&quot;&gt;&lt;b&gt;type = &quot;deposit&quot;&lt;/b&gt;&lt;/div&gt;" style="text;html=1;align=left;verticalAlign=middle;resizable=0;points=[];autosize=1;strokeColor=none;fillColor=none;" vertex="1" parent="EaBmqPBPfIl5NzQHK9tH-13">
          <mxGeometry x="10" y="30" width="150" height="80" as="geometry" />
        </mxCell>
        <mxCell id="EaBmqPBPfIl5NzQHK9tH-15" value="&lt;font style=&quot;font-size: 14px;&quot;&gt;T2: Transaction2&lt;/font&gt;" style="swimlane;whiteSpace=wrap;html=1;strokeWidth=3;" vertex="1" parent="1">
          <mxGeometry x="290" y="840" width="210" height="120" as="geometry" />
        </mxCell>
        <mxCell id="EaBmqPBPfIl5NzQHK9tH-16" value="&lt;b style=&quot;font-size: 14px;&quot;&gt;&lt;font style=&quot;font-size: 14px;&quot;&gt;id = 2&lt;/font&gt;&lt;/b&gt;&lt;div style=&quot;font-size: 14px;&quot;&gt;&lt;b&gt;date = &quot;2024-07-24&quot;&lt;/b&gt;&lt;/div&gt;&lt;div style=&quot;font-size: 14px;&quot;&gt;&lt;b&gt;amount = 100.00&lt;/b&gt;&lt;/div&gt;&lt;div style=&quot;font-size: 14px;&quot;&gt;&lt;b&gt;type = &quot;withdraw&quot;&lt;/b&gt;&lt;/div&gt;" style="text;html=1;align=left;verticalAlign=middle;resizable=0;points=[];autosize=1;strokeColor=none;fillColor=none;" vertex="1" parent="EaBmqPBPfIl5NzQHK9tH-15">
          <mxGeometry x="10" y="30" width="150" height="80" as="geometry" />
        </mxCell>
        <mxCell id="EaBmqPBPfIl5NzQHK9tH-17" value="&lt;b&gt;fig. Object Diagram for Banking System&lt;/b&gt;" style="text;strokeColor=none;align=center;fillColor=none;html=1;verticalAlign=middle;whiteSpace=wrap;rounded=0;" vertex="1" parent="1">
          <mxGeometry x="285" y="1010" width="280" height="30" as="geometry" />
        </mxCell>
        <mxCell id="EaBmqPBPfIl5NzQHK9tH-18" value="" style="endArrow=none;html=1;rounded=0;strokeWidth=3;entryX=0.75;entryY=1;entryDx=0;entryDy=0;exitX=0.5;exitY=0;exitDx=0;exitDy=0;" edge="1" parent="1" source="EaBmqPBPfIl5NzQHK9tH-15" target="EaBmqPBPfIl5NzQHK9tH-9">
          <mxGeometry width="50" height="50" relative="1" as="geometry">
            <mxPoint x="20" y="720" as="sourcePoint" />
            <mxPoint x="70" y="670" as="targetPoint" />
          </mxGeometry>
        </mxCell>
        <mxCell id="EaBmqPBPfIl5NzQHK9tH-19" value="" style="endArrow=none;html=1;rounded=0;strokeWidth=3;entryX=0.25;entryY=1;entryDx=0;entryDy=0;exitX=0.5;exitY=0;exitDx=0;exitDy=0;" edge="1" parent="1" source="EaBmqPBPfIl5NzQHK9tH-13" target="EaBmqPBPfIl5NzQHK9tH-9">
          <mxGeometry width="50" height="50" relative="1" as="geometry">
            <mxPoint x="30" y="730" as="sourcePoint" />
            <mxPoint x="80" y="680" as="targetPoint" />
          </mxGeometry>
        </mxCell>
        <mxCell id="EaBmqPBPfIl5NzQHK9tH-20" value="" style="endArrow=none;html=1;rounded=0;strokeWidth=3;entryX=0.75;entryY=1;entryDx=0;entryDy=0;exitX=0.5;exitY=0;exitDx=0;exitDy=0;" edge="1" parent="1" source="EaBmqPBPfIl5NzQHK9tH-11" target="EaBmqPBPfIl5NzQHK9tH-3">
          <mxGeometry width="50" height="50" relative="1" as="geometry">
            <mxPoint x="170" y="490" as="sourcePoint" />
            <mxPoint x="220" y="440" as="targetPoint" />
          </mxGeometry>
        </mxCell>
        <mxCell id="EaBmqPBPfIl5NzQHK9tH-21" value="" style="endArrow=none;html=1;rounded=0;strokeWidth=3;entryX=0.25;entryY=1;entryDx=0;entryDy=0;exitX=0.5;exitY=0;exitDx=0;exitDy=0;" edge="1" parent="1" source="EaBmqPBPfIl5NzQHK9tH-9" target="EaBmqPBPfIl5NzQHK9tH-3">
          <mxGeometry width="50" height="50" relative="1" as="geometry">
            <mxPoint x="170" y="630" as="sourcePoint" />
            <mxPoint x="220" y="580" as="targetPoint" />
          </mxGeometry>
        </mxCell>
        <mxCell id="EaBmqPBPfIl5NzQHK9tH-22" value="" style="endArrow=none;html=1;rounded=0;strokeWidth=3;entryX=0.75;entryY=1;entryDx=0;entryDy=0;exitX=0.5;exitY=0;exitDx=0;exitDy=0;" edge="1" parent="1" source="EaBmqPBPfIl5NzQHK9tH-7" target="EaBmqPBPfIl5NzQHK9tH-1">
          <mxGeometry width="50" height="50" relative="1" as="geometry">
            <mxPoint x="520" y="536.7" as="sourcePoint" />
            <mxPoint x="600.6600000000001" y="460.00000000000006" as="targetPoint" />
          </mxGeometry>
        </mxCell>
        <mxCell id="EaBmqPBPfIl5NzQHK9tH-23" value="" style="endArrow=none;html=1;rounded=0;strokeWidth=3;entryX=0.25;entryY=1;entryDx=0;entryDy=0;exitX=0.5;exitY=0;exitDx=0;exitDy=0;" edge="1" parent="1" source="EaBmqPBPfIl5NzQHK9tH-3" target="EaBmqPBPfIl5NzQHK9tH-1">
          <mxGeometry width="50" height="50" relative="1" as="geometry">
            <mxPoint x="380" y="490" as="sourcePoint" />
            <mxPoint x="430" y="440" as="targetPoint" />
          </mxGeometry>
        </mxCell>
      </root>
    </mxGraphModel>
  </diagram>
</mxfile>
